# xmcd CD database file
#
# Track frame offsets:
#	200
#	13550
#	46250
#	72350
#	103775
#	123650
#	142175
#	165575
#	189050
#
# Disc length: 2710 seconds
#
# Revision: 0
# Processed by: cddbd v1.4PL0 Copyright (c) Steve Scherf et al.
# Submitted via: CDex 1.50Beta7
#
DISCID=780a9409
DTITLE=Cornell Rochester and The N.P. Boys - I Said Your Mother's on the Pipe
DYEAR=1995
DGENRE=Jazz
TTITLE0=I Said Your Mother's on the Pipe
TTITLE1=Groovin' Down the Highway
TTITLE2=I Don't Know You Don't Know
TTITLE3=Will Bop
TTITLE4=Black Keys vs. White Keys
TTITLE5=Do YOu Remember
TTITLE6=Uri's World
TTITLE7=Flyin' Down the Highway
TTITLE8=Hardcore
EXTD=YEAR: 1995
EXTT0=
EXTT1=
EXTT2=
EXTT3=
EXTT4=
EXTT5=
EXTT6=
EXTT7=
EXTT8=
PLAYORDER=
